<svg xmlns="http://www.w3.org/2000/svg" xmlns:xlink="http://www.w3.org/1999/xlink" viewBox="0 0 100 158.46"><defs><style>.cls-1{fill:#00b3ff;}.cls-2{fill:#fcee21;}.cls-3{fill:url(#linear-gradient);}.cls-4{fill:url(#linear-gradient-2);}.cls-5{fill:none;}</style><linearGradient id="linear-gradient" x1="8.56" y1="106.62" x2="58.29" y2="166.28" gradientUnits="userSpaceOnUse"><stop offset="0" stop-color="#205969" stop-opacity="0.6"/><stop offset="0.12" stop-color="#186f8d" stop-opacity="0.65"/><stop offset="0.27" stop-color="#1087b6" stop-opacity="0.7"/><stop offset="0.42" stop-color="#099ad6" stop-opacity="0.75"/><stop offset="0.57" stop-color="#04a8ed" stop-opacity="0.78"/><stop offset="0.72" stop-color="#01b0fa" stop-opacity="0.79"/><stop offset="0.86" stop-color="#00b3ff" stop-opacity="0.8"/></linearGradient><linearGradient id="linear-gradient-2" x1="37.55" y1="47.78" x2="106.57" y2="101.16" gradientUnits="userSpaceOnUse"><stop offset="0.21" stop-color="#00b3ff"/><stop offset="0.34" stop-color="#04a7ec"/><stop offset="0.61" stop-color="#0f89b9"/><stop offset="1" stop-color="#205969"/></linearGradient></defs><title>d logo design</title><g id="Layer_2" data-name="Layer 2"><g id="Layer_1-2" data-name="Layer 1"><path class="cls-1" d="M100,1s0-.06,0-.09L99.9.71a1.09,1.09,0,0,0-.08-.15,1.13,1.13,0,0,0-.1-.13L99.61.31l-.14-.1L99.33.13,99.18.06,99,0,98.8,0h-.15l-.17,0h-.17l-.16,0L98,.08l-.17,0-.17,0-.17,0-.16,0-.17,0L97,.24l-.17,0-.16,0-.17,0-.16,0-.16,0L96,.45l-.16,0-.16.05-.16,0-.17.05L95.2.68,95,.72l-.16.06-.15,0-.16.05-.16.06L94.26,1l-.15.06L94,1.11l-.15.06-.15.07-.15.06-.15.07-.15.06-.15.07-.15.08-.15.06-.14.08-.15.07-.14.08L92.18,2,92,2l-.14.08-.14.08-.14.08-.14.09-.14.08-.14.09-.13.08-.14.09-.13.1a.67.67,0,0,0-.14.09L90.52,3l-.13.1-.14.09-.13.1-.12.1-.13.1-.13.1-.13.1-.12.1-.13.11-.12.1-.12.11L89,4.2a.63.63,0,0,0-.12.11l-.12.11-.12.11-.12.11a1.36,1.36,0,0,1-.12.12l-.11.11L88.18,5l-.12.11a.63.63,0,0,1-.11.12l-.11.12-.11.12-.11.13-.1.12-.11.12-.1.13-.11.12-.1.13a1.47,1.47,0,0,0-.1.13,1.47,1.47,0,0,0-.1.13,1.47,1.47,0,0,0-.1.13l-.1.13-.09.13a1.13,1.13,0,0,1-.1.13l-.09.14-.09.13-.1.14-.08.13a1.7,1.7,0,0,1-.1.14.64.64,0,0,1-.08.14L85.88,8l-.08.14a1,1,0,0,0-.08.14l-.09.15-.08.14s0,.09-.08.14l-.08.15L85.32,9l-.08.15a1.09,1.09,0,0,1-.08.15s0,.09-.07.14a1,1,0,0,1-.07.15,1,1,0,0,1-.07.15,1,1,0,0,1-.07.15l-.06.15-.07.16-.06.15a1,1,0,0,0-.07.15l-.06.16-.06.16-.06.15-.06.16a.88.88,0,0,1,0,.15,1.42,1.42,0,0,0,0,.16l-.06.16a.75.75,0,0,1,0,.16.75.75,0,0,1,0,.16l0,.16,0,.17a.75.75,0,0,0,0,.16,1,1,0,0,0,0,.16c0,.06,0,.11,0,.16a1,1,0,0,0,0,.17l0,.16c0,.06,0,.11,0,.17l0,.17,0,.16,0,.17,0,.17,0,.17a.88.88,0,0,0,0,.17l0,.17a.88.88,0,0,0,0,.17l0,.17c0,.05,0,.11,0,.17l0,.17a.88.88,0,0,1,0,.17c0,.06,0,.12,0,.18a.91.91,0,0,0,0,.17c0,.06,0,.11,0,.17v.18a1,1,0,0,1,0,.17v.18a1,1,0,0,0,0,.17V71.27A49.93,49.93,0,0,0,35.94,60.48h0a50,50,0,0,0-10,91.78,0,0,0,0,1,0,0A50,50,0,0,0,100,108.79V1A.29.29,0,0,0,100,1ZM60.23,140.24A33.39,33.39,0,0,1,18.61,97.08a32.47,32.47,0,0,1,2.29-5s0,0,0,0h0a33.38,33.38,0,1,1,39.3,48.17Z"/><path class="cls-2" d="M20.93,92.07h0Z"/><path class="cls-3" d="M65.74,155.92a50,50,0,0,1-39.82-3.65,0,0,0,0,0,0,0c-25.91-15.82-15.39-41-7.3-55.18a33.4,33.4,0,0,0,41.62,43.16C62,145.35,64,150.94,65.74,155.92Z"/><path class="cls-4" d="M83.39,108.46a33.42,33.42,0,0,0-41-32.52L35.93,60.48h0A49.93,49.93,0,0,1,83.39,71.27V58"/><line class="cls-5" x1="83.39" y1="71.27" x2="83.39" y2="108.46"/></g></g></svg>