<svg xmlns="http://www.w3.org/2000/svg" xmlns:xlink="http://www.w3.org/1999/xlink" viewBox="0 0 57.72 56.95"><defs><style>.cls-1{fill:url(#New_Gradient_Swatch_copy);}</style><linearGradient id="New_Gradient_Swatch_copy" x1="28.86" y1="56.95" x2="28.86" gradientUnits="userSpaceOnUse"><stop offset="0" stop-color="#00e97e"/><stop offset="1" stop-color="#00e8e9"/></linearGradient></defs><title>Analysis</title><g id="Layer_2" data-name="Layer 2"><g id="Layer_1-2" data-name="Layer 1"><path class="cls-1" d="M51.8,26.81a5.76,5.76,0,0,0-2.74.71L38.27,10.11A5.93,5.93,0,0,0,34.07,0h0A5.93,5.93,0,0,0,32,11.48L24.27,45.25a5.94,5.94,0,0,0-1.35-.17,5.86,5.86,0,0,0-3.3,1L10.43,34l-.1-.08A5.89,5.89,0,0,0,11.84,30a5.92,5.92,0,1,0-5.93,5.94,5.83,5.83,0,0,0,2.54-.6s0,.09.06.12l9.42,12.41a5.92,5.92,0,1,0,8.57-1.54l7.9-34.48a6.06,6.06,0,0,0,1.86-.4L47.19,29.07a5.89,5.89,0,1,0,4.61-2.26ZM2.4,30a3.52,3.52,0,1,1,3.51,3.53A3.53,3.53,0,0,1,2.4,30ZM22.92,54.54A3.53,3.53,0,1,1,26.44,51,3.52,3.52,0,0,1,22.92,54.54Zm7.64-48.6a3.52,3.52,0,0,1,3.51-3.53h0a3.53,3.53,0,1,1-3.51,3.53ZM51.8,36.28a3.53,3.53,0,1,1,3.51-3.53A3.53,3.53,0,0,1,51.8,36.28Z"/></g></g></svg>