<svg xmlns="http://www.w3.org/2000/svg" xmlns:xlink="http://www.w3.org/1999/xlink" viewBox="0 0 48.2 43.39"><defs><style>.cls-1{fill:url(#New_Gradient_Swatch_copy);}.cls-2{fill:url(#New_Gradient_Swatch_copy-2);}.cls-3{fill:url(#New_Gradient_Swatch_copy-3);}.cls-4{fill:url(#New_Gradient_Swatch_copy-4);}.cls-5{fill:url(#New_Gradient_Swatch_copy-5);}.cls-6{fill:url(#New_Gradient_Swatch_copy-6);}.cls-7{fill:url(#New_Gradient_Swatch_copy-7);}.cls-8{fill:url(#New_Gradient_Swatch_copy-8);}.cls-9{fill:url(#New_Gradient_Swatch_copy-9);}</style><linearGradient id="New_Gradient_Swatch_copy" x1="24.08" y1="34.29" x2="24.08" y2="14.47" gradientUnits="userSpaceOnUse"><stop offset="0" stop-color="#00e97e"/><stop offset="1" stop-color="#00e8e9"/></linearGradient><linearGradient id="New_Gradient_Swatch_copy-2" x1="13.39" y1="35.36" x2="13.39" y2="13.4" xlink:href="#New_Gradient_Swatch_copy"/><linearGradient id="New_Gradient_Swatch_copy-3" x1="8.03" y1="35.36" x2="8.03" y2="13.4" xlink:href="#New_Gradient_Swatch_copy"/><linearGradient id="New_Gradient_Swatch_copy-4" x1="34.81" y1="35.36" x2="34.81" y2="13.4" xlink:href="#New_Gradient_Swatch_copy"/><linearGradient id="New_Gradient_Swatch_copy-5" x1="40.16" y1="35.36" x2="40.16" y2="13.4" xlink:href="#New_Gradient_Swatch_copy"/><linearGradient id="New_Gradient_Swatch_copy-6" x1="24.14" y1="12.33" x2="24.14" y2="0" xlink:href="#New_Gradient_Swatch_copy"/><linearGradient id="New_Gradient_Swatch_copy-7" x1="24.1" y1="38.03" x2="24.1" y2="36.43" xlink:href="#New_Gradient_Swatch_copy"/><linearGradient id="New_Gradient_Swatch_copy-8" x1="24.1" y1="40.71" x2="24.1" y2="39.11" xlink:href="#New_Gradient_Swatch_copy"/><linearGradient id="New_Gradient_Swatch_copy-9" x1="24.1" y1="43.39" x2="24.1" y2="41.78" xlink:href="#New_Gradient_Swatch_copy"/></defs><title>Banking</title><g id="Layer_2" data-name="Layer 2"><g id="Layer_1-2" data-name="Layer 1"><path class="cls-1" d="M24,34.29a.83.83,0,0,0,.81-.81V31.56a3.91,3.91,0,0,0,3.53-3.7c0-2.25-1.82-3.21-3.48-4v-5a3.31,3.31,0,0,1,2,1.07A.81.81,0,1,0,28.22,19a4.77,4.77,0,0,0-3.32-1.76v-2a.82.82,0,0,0-.8-.81.83.83,0,0,0-.81.81V17.2a3.89,3.89,0,0,0-3.48,3.7c0,2.3,1.82,3.32,3.48,4v5a3.47,3.47,0,0,1-2-1.08.81.81,0,0,0-1.34.91,4.73,4.73,0,0,0,3.32,1.83v1.92A.83.83,0,0,0,24,34.29Zm.86-8.63c1.18.59,1.88,1.13,1.88,2.2a2.25,2.25,0,0,1-1.88,2ZM21.42,20.9a2.25,2.25,0,0,1,1.87-2v4.29C22.12,22.56,21.42,22,21.42,20.9Z"/><path class="cls-2" d="M12.58,14.2V34.55a.83.83,0,0,0,.81.81.82.82,0,0,0,.8-.81V14.2a.82.82,0,0,0-.8-.8A.83.83,0,0,0,12.58,14.2Z"/><path class="cls-3" d="M7.23,14.2V34.55a.82.82,0,0,0,.8.81.83.83,0,0,0,.81-.81V14.2A.83.83,0,0,0,8,13.4.82.82,0,0,0,7.23,14.2Z"/><path class="cls-4" d="M34,14.2V34.55a.8.8,0,1,0,1.6,0V14.2a.8.8,0,1,0-1.6,0Z"/><path class="cls-5" d="M39.36,14.2V34.55a.81.81,0,1,0,1.61,0V14.2a.81.81,0,0,0-1.61,0Z"/><path class="cls-6" d="M6.16,12.33H42a.9.9,0,0,0,.85-.8.83.83,0,0,0-.48-.75L24.53.12a.74.74,0,0,0-.81,0L5.78,10.83a.79.79,0,0,0-.37.91A.75.75,0,0,0,6.16,12.33ZM24.1,1.73l15,9h-30Z"/><path class="cls-7" d="M6.16,38H42a.8.8,0,0,0,0-1.6H6.16a.8.8,0,0,0,0,1.6Z"/><path class="cls-8" d="M3.48,40.71H44.72a.8.8,0,0,0,0-1.6H3.48a.8.8,0,0,0,0,1.6Z"/><path class="cls-9" d="M47.39,41.78H.8a.82.82,0,0,0-.8.81.82.82,0,0,0,.8.8H47.39a.82.82,0,0,0,.81-.8A.83.83,0,0,0,47.39,41.78Z"/></g></g></svg>