<svg xmlns="http://www.w3.org/2000/svg" xmlns:xlink="http://www.w3.org/1999/xlink" viewBox="0 0 63.03 46.23"><defs><style>.cls-1{fill:url(#New_Gradient_Swatch_copy);}.cls-2{fill:url(#New_Gradient_Swatch_copy-2);}.cls-3{fill:url(#New_Gradient_Swatch_copy-3);}</style><linearGradient id="New_Gradient_Swatch_copy" x1="31.52" y1="46.23" x2="31.52" gradientUnits="userSpaceOnUse"><stop offset="0" stop-color="#00e97e"/><stop offset="1" stop-color="#00e8e9"/></linearGradient><linearGradient id="New_Gradient_Swatch_copy-2" x1="11.56" y1="37.58" x2="11.56" y2="35.18" xlink:href="#New_Gradient_Swatch_copy"/><linearGradient id="New_Gradient_Swatch_copy-3" x1="17.84" y1="32.97" x2="17.84" y2="30.57" xlink:href="#New_Gradient_Swatch_copy"/></defs><title>CreditCards</title><g id="Layer_2" data-name="Layer 2"><g id="Layer_1-2" data-name="Layer 1"><path class="cls-1" d="M57.44,0H5.59A5.71,5.71,0,0,0,0,5.81V40.42a5.71,5.71,0,0,0,5.59,5.81H57.44A5.71,5.71,0,0,0,63,40.42V5.81A5.71,5.71,0,0,0,57.44,0ZM5.59,2.4H57.44a3.35,3.35,0,0,1,3.28,3.41V11H2.31V5.81A3.35,3.35,0,0,1,5.59,2.4ZM60.72,20.57H2.31V13.36H60.72ZM57.44,43.83H5.59a3.35,3.35,0,0,1-3.28-3.41V23H60.72V40.42A3.35,3.35,0,0,1,57.44,43.83Z"/><path class="cls-2" d="M15.44,35.18H7.68a1.2,1.2,0,0,0,0,2.4h7.76a1.2,1.2,0,0,0,0-2.4Z"/><path class="cls-3" d="M28,30.57H7.68a1.2,1.2,0,0,0,0,2.4H28a1.2,1.2,0,0,0,0-2.4Z"/></g></g></svg>