<svg xmlns="http://www.w3.org/2000/svg" xmlns:xlink="http://www.w3.org/1999/xlink" viewBox="0 0 43.03 54.31"><defs><style>.cls-1{fill:url(#New_Gradient_Swatch_copy);}</style><linearGradient id="New_Gradient_Swatch_copy" x1="21.51" y1="54.31" x2="21.51" gradientUnits="userSpaceOnUse"><stop offset="0" stop-color="#00e97e"/><stop offset="1" stop-color="#00e8e9"/></linearGradient></defs><title>Exchange</title><g id="Layer_2" data-name="Layer 2"><g id="Layer_1-2" data-name="Layer 1"><path class="cls-1" d="M26.57,54.31H16.45V42.77H3.71V33.45H16.45V31.23H3.71V21.92H14.27L0,5.77,8,0,21.51,15.34,35.07,0l8,5.77L28.75,21.92H39.32v9.31H26.57v2.22H39.32v9.32H26.57Zm-8.49-1.62H25V41.15H37.7V35.08H25V29.61H37.7V23.54H25.15L40.63,6,35.31,2.18,21.51,17.79,7.72,2.18,2.4,6,17.87,23.54H5.33v6.07H18.08v5.47H5.33v6.07H18.08Z"/></g></g></svg>