<svg xmlns="http://www.w3.org/2000/svg" viewBox="0 0 400 500"><title>lamp</title><g id="Layer_2" data-name="Layer 2"><g id="Layer_1-2" data-name="Layer 1"><path d="M338.59,323.34H61.42C27.55,323.34,0,304.16,0,280.59a10.36,10.36,0,0,1,.16-1.75L45.21,41.24C46,18.41,73.21,0,106.61,0H293.39c33.4,0,60.66,18.41,61.4,41.24l45,237.6a9.42,9.42,0,0,1,.16,1.75C400,304.16,372.45,323.34,338.59,323.34Zm-300.09-42c.56,8.47,10.63,15.23,22.92,15.23H338.59c12.28,0,22.35-6.76,22.91-15.23L316.5,44a9.35,9.35,0,0,1-.17-1.75c0-8.65-10.07-15.43-22.93-15.43H106.61c-12.87,0-22.94,6.78-22.94,15.43A9.35,9.35,0,0,1,83.5,44Z"/><path d="M317.83,500H80.64c-24.15,0-43.79-13.66-43.79-30.46v-7.6c0-16.8,19.64-30.46,43.79-30.46H317.83c24.14,0,43.78,13.66,43.78,30.46v7.6C361.61,486.34,342,500,317.83,500ZM80.64,458.24c-2.93,0-5.31,1.66-5.31,3.7v7.6c0,2,2.38,3.69,5.31,3.69H317.83c2.92,0,5.3-1.65,5.3-3.69v-7.6c0-2-2.38-3.7-5.3-3.7Z"/><path d="M197.69,456.64c-10.62,0-19.24-6-19.24-13.39V310.49c0-7.39,8.62-13.38,19.24-13.38s19.24,6,19.24,13.38V443.25C216.93,450.65,208.32,456.64,197.69,456.64Z"/><path d="M303.89,361.35c-10.62,0-19.24-6-19.24-13.38V310.49c0-7.39,8.62-13.38,19.24-13.38s19.24,6,19.24,13.38V348C323.13,355.36,314.52,361.35,303.89,361.35Z"/></g></g></svg>