<svg xmlns="http://www.w3.org/2000/svg" viewBox="0 0 407 477.9"><title>menu</title><g id="Layer_2" data-name="Layer 2"><g id="Layer_1-2" data-name="Layer 1"><path d="M285.44,140.23H121.56c-3.21,0-5.35,2.51-5.35,6.28s2.14,6.29,5.35,6.29H285.44c3.21,0,5.35-2.51,5.35-6.29S288.11,140.23,285.44,140.23Z"/><path d="M285.44,201.85H121.56c-3.21,0-5.35,2.52-5.35,6.29s2.14,6.29,5.35,6.29H285.44c3.21,0,5.35-2.52,5.35-6.29S288.11,201.85,285.44,201.85Z"/><path d="M285.44,263.47H121.56c-3.21,0-5.35,2.52-5.35,6.29s2.14,6.29,5.35,6.29H285.44c3.21,0,5.35-2.52,5.35-6.29S288.11,263.47,285.44,263.47Z"/><path d="M285.44,325.1H121.56c-3.21,0-5.35,2.51-5.35,6.29s2.14,6.28,5.35,6.28H285.44c3.21,0,5.35-2.51,5.35-6.28S288.11,325.1,285.44,325.1Z"/><path d="M316.5,0H90.5C40.7,0,0,47.79,0,106.27V371.63C0,430.11,40.7,477.9,90.5,477.9h226c49.8,0,90.5-47.79,90.5-106.27V106.27C407,47.79,366.3,0,316.5,0Zm79.79,371.63c0,51.56-35.88,93.69-79.79,93.69H90.5c-43.91,0-79.79-42.13-79.79-93.69V106.27c0-51.56,35.88-93.69,79.79-93.69h226c43.91,0,79.79,42.13,79.79,93.69Z"/></g></g></svg>