<svg xmlns="http://www.w3.org/2000/svg" xmlns:xlink="http://www.w3.org/1999/xlink" viewBox="0 0 42.87 55.25"><defs><style>.cls-1{fill:none;}.cls-2{fill:url(#New_Gradient_Swatch_copy);}.cls-3{fill:url(#New_Gradient_Swatch_copy-2);}.cls-4{fill:url(#New_Gradient_Swatch_copy-3);}.cls-5{fill:url(#New_Gradient_Swatch_copy-4);}.cls-6{fill:url(#New_Gradient_Swatch_copy-5);}</style><linearGradient id="New_Gradient_Swatch_copy" x1="21.44" y1="55.25" x2="21.44" gradientUnits="userSpaceOnUse"><stop offset="0" stop-color="#00e97e"/><stop offset="1" stop-color="#00e8e9"/></linearGradient><linearGradient id="New_Gradient_Swatch_copy-2" x1="21.44" y1="33.24" x2="21.44" y2="30.58" xlink:href="#New_Gradient_Swatch_copy"/><linearGradient id="New_Gradient_Swatch_copy-3" x1="21.44" y1="40.31" x2="21.44" y2="37.66" xlink:href="#New_Gradient_Swatch_copy"/><linearGradient id="New_Gradient_Swatch_copy-4" x1="21.44" y1="47.38" x2="21.44" y2="44.73" xlink:href="#New_Gradient_Swatch_copy"/><linearGradient id="New_Gradient_Swatch_copy-5" x1="21.44" y1="25.55" x2="21.44" y2="7.87" xlink:href="#New_Gradient_Swatch_copy"/></defs><title>Profile</title><g id="Layer_2" data-name="Layer 2"><g id="Layer_1-2" data-name="Layer 1"><path class="cls-1" d="M21.44,18a3.25,3.25,0,0,0,2.75-2,6.52,6.52,0,0,0,.63-2.38,3.89,3.89,0,0,0,0-.49l-.21,0h0l-1.16-.14c.64-.37.3-1.17.15-1.44l-.08-.12,0,0a14,14,0,0,1-3.27,1.79,13.59,13.59,0,0,1-2.18.54C18.29,16.09,19.71,18,21.44,18Z"/><path class="cls-1" d="M23.13,18.56l.45-.94a2.92,2.92,0,0,1-4.33,0L19.9,19c-.15-.24-.73-.37-1.43-.43a2.71,2.71,0,0,0,1.79,1.09l1.18,1.91,1.18-1.91c1-.24,1.79-.78,1.9-1.42C23.85,18.25,23.28,18.31,23.13,18.56Z"/><path class="cls-1" d="M40,2.21H2.87a.67.67,0,0,0-.66.66V52.38a.67.67,0,0,0,.66.66H40a.66.66,0,0,0,.66-.66V2.87A.65.65,0,0,0,40,2.21ZM16.74,18.55c-.63,0-1.1,0-1.1,0,1.74-1,1.7-4.4,1.7-4.4-.3-6.67,4.09-6.32,4.09-6.32h0s4.4-.35,4.1,6.32c0,0-.05,3.44,1.69,4.4,0,0-.76-.15-1.64-.25a5.1,5.1,0,0,1,3.57,4.86c0,2.81-2.29,2.31-5.1,2.31H18.82c-2.82,0-5.1.5-5.1-2.31A5.08,5.08,0,0,1,16.74,18.55Zm18,28.83H8.16a1.33,1.33,0,1,1,0-2.65H34.72a1.33,1.33,0,0,1,0,2.65Zm0-7.07H8.16a1.33,1.33,0,1,1,0-2.65H34.72a1.33,1.33,0,0,1,0,2.65Zm0-7.07H8.16a1.33,1.33,0,1,1,0-2.65H34.72a1.33,1.33,0,0,1,0,2.65Z"/><path class="cls-2" d="M40,0H2.87A2.88,2.88,0,0,0,0,2.87V52.38a2.88,2.88,0,0,0,2.87,2.87H40a2.87,2.87,0,0,0,2.87-2.87V2.87A2.87,2.87,0,0,0,40,0Zm.67,52.38A.67.67,0,0,1,40,53H2.87a.67.67,0,0,1-.66-.66V2.87a.67.67,0,0,1,.66-.66H40a.67.67,0,0,1,.67.66Z"/><path class="cls-3" d="M8.16,33.24H34.72a1.33,1.33,0,0,0,0-2.66H8.16a1.33,1.33,0,1,0,0,2.66Z"/><path class="cls-4" d="M34.72,37.66H8.16a1.33,1.33,0,1,0,0,2.65H34.72a1.33,1.33,0,0,0,0-2.65Z"/><path class="cls-5" d="M34.72,44.73H8.16a1.33,1.33,0,1,0,0,2.65H34.72a1.33,1.33,0,0,0,0-2.65Z"/><path class="cls-6" d="M18.81,25.51h5.25c2.81,0,5.09.5,5.09-2.31a5.09,5.09,0,0,0-3.56-4.86c.88.1,1.64.25,1.64.25-1.74-1-1.7-4.4-1.7-4.4.31-6.67-4.09-6.32-4.09-6.32h0s-4.4-.35-4.09,6.32c0,0,0,3.44-1.7,4.4,0,0,.47,0,1.1,0a5.08,5.08,0,0,0-3,4.65C13.72,26,16,25.51,18.81,25.51Zm3.81-5.83-1.18,1.91-1.18-1.91a2.71,2.71,0,0,1-1.79-1.09c.7.06,1.28.19,1.43.43l-.65-1.44a3.12,3.12,0,0,0,2.19,1,3.09,3.09,0,0,0,2.14-.94l-.45.94c.15-.25.72-.31,1.39-.3C24.41,18.9,23.66,19.44,22.62,19.68Zm-2.38-6.56a14,14,0,0,0,3.27-1.79l0,0,.08.12c.15.27.49,1.07-.14,1.44l1.15.14h0l.21,0a2.63,2.63,0,0,1,0,.49,6.52,6.52,0,0,1-.63,2.38,3.25,3.25,0,0,1-2.75,2c-1.73,0-3.15-1.88-3.37-4.31A13.57,13.57,0,0,0,20.24,13.12Z"/></g></g></svg>