<svg xmlns="http://www.w3.org/2000/svg" xmlns:xlink="http://www.w3.org/1999/xlink" viewBox="0 0 51.45 53.47"><defs><style>.cls-1{fill:url(#New_Gradient_Swatch_copy);}.cls-2{fill:url(#New_Gradient_Swatch_copy-2);}</style><linearGradient id="New_Gradient_Swatch_copy" x1="25.72" y1="53.47" x2="25.72" gradientUnits="userSpaceOnUse"><stop offset="0" stop-color="#00e97e"/><stop offset="1" stop-color="#00e8e9"/></linearGradient><linearGradient id="New_Gradient_Swatch_copy-2" x1="25.72" y1="39.21" x2="25.72" y2="14.26" xlink:href="#New_Gradient_Swatch_copy"/></defs><title>Settings</title><g id="Layer_2" data-name="Layer 2"><g id="Layer_1-2" data-name="Layer 1"><path class="cls-1" d="M46.49,26.73A19.85,19.85,0,0,0,46,22.25l5.49-5.09L47,9.58l-7.2,2.13a20.74,20.74,0,0,0-7.91-4.49L30.17,0H21.28L19.55,7.22a20.89,20.89,0,0,0-7.91,4.49L4.44,9.58,0,17.16l5.49,5.09a19.24,19.24,0,0,0,0,9L0,36.31l4.44,7.58,7.2-2.13a20.89,20.89,0,0,0,7.91,4.49l1.73,7.22h8.89l1.72-7.22a20.74,20.74,0,0,0,7.91-4.49L47,43.89l4.45-7.58L46,31.22A19.93,19.93,0,0,0,46.49,26.73Zm2.1,10-2.65,4.53-6.76-2-.48.46a18.6,18.6,0,0,1-8.06,4.58l-.64.17-1.62,6.78H23.07l-1.62-6.78-.65-.17a18.6,18.6,0,0,1-8.06-4.58l-.48-.46-6.75,2L2.85,36.72,8,32l-.17-.64a17.46,17.46,0,0,1,0-9.15L8,21.52,2.85,16.74l2.66-4.52,6.75,2,.48-.46A18.6,18.6,0,0,1,20.8,9.18L21.45,9l1.62-6.78h5.31L30,9l.64.17a18.54,18.54,0,0,1,8.06,4.58l.48.46,6.76-2,2.65,4.52-5.15,4.78.17.64a17.46,17.46,0,0,1,0,9.15l-.17.64Z"/><path class="cls-2" d="M25.72,14.26A12.48,12.48,0,1,0,38.39,26.73,12.58,12.58,0,0,0,25.72,14.26Zm0,22.72A10.25,10.25,0,1,1,36.13,26.73,10.34,10.34,0,0,1,25.72,37Z"/></g></g></svg>