<svg xmlns="http://www.w3.org/2000/svg" viewBox="0 0 400 400"><title>sun</title><g id="Layer_2" data-name="Layer 2"><g id="Layer_1-2" data-name="Layer 1"><path d="M201.06,400a15.45,15.45,0,0,1-15.84-15.62V342.19a15.84,15.84,0,0,1,31.67,0v42.19A15.45,15.45,0,0,1,201.06,400Zm131.39-54.69a15.27,15.27,0,0,1-11.08-4.69l-30.6-30.2c-6.34-6.25-6.34-16.15,0-21.88,6.33-6.25,16.35-6.25,22.16,0l30.61,30.21c6.33,6.25,6.33,16.15,0,21.87A15.28,15.28,0,0,1,332.45,345.31Zm-263.32-1a14.45,14.45,0,0,1-11.08-4.69,15.41,15.41,0,0,1,0-21.87l29-28.13a15.91,15.91,0,0,1,22.16,0,15.41,15.41,0,0,1,0,21.88l-29,28.12A15.27,15.27,0,0,1,69.13,344.27ZM200,302.08c-57,0-102.9-45.31-102.9-101.56S143,99,200,99s102.9,45.31,102.9,101.56S257,302.08,200,302.08Zm0-171.87c-39.05,0-71.24,31.77-71.24,70.31S161,270.83,200,270.83s71.24-31.77,71.24-70.31S239.05,130.21,200,130.21Zm184.17,89.58H342.48a15.63,15.63,0,1,1,0-31.25h41.69a15.63,15.63,0,1,1,0,31.25Zm-328.23-.52H15.83a15.63,15.63,0,1,1,0-31.25H55.94a15.63,15.63,0,1,1,0,31.25Zm247-103.12a14.48,14.48,0,0,1-11.08-4.69,15.43,15.43,0,0,1,0-21.88L321.9,60.42a15.91,15.91,0,0,1,22.16,0c5.81,5.73,5.81,16.14,0,21.87L314,111.46A15.3,15.3,0,0,1,302.9,116.15ZM98.68,114.58A15.3,15.3,0,0,1,87.6,109.9l-29-28.65c-6.34-6.25-6.34-16.15,0-21.88,6.33-6.25,16.35-6.25,22.16,0l29,28.65c6.34,6.25,6.34,16.15,0,21.88A15.29,15.29,0,0,1,98.68,114.58ZM201.06,74a15.45,15.45,0,0,1-15.84-15.63V15.62a15.84,15.84,0,0,1,31.67,0V58.33A15.45,15.45,0,0,1,201.06,74Z"/></g></g></svg>