<svg xmlns="http://www.w3.org/2000/svg" xmlns:xlink="http://www.w3.org/1999/xlink" viewBox="0 0 59.21 51.29"><defs><style>.cls-1{fill:url(#New_Gradient_Swatch_copy);}.cls-2{fill:url(#New_Gradient_Swatch_copy-2);}.cls-3{fill:url(#New_Gradient_Swatch_copy-3);}.cls-4{fill:url(#New_Gradient_Swatch_copy-4);}.cls-5{fill:url(#New_Gradient_Swatch_copy-5);}.cls-6{fill:url(#New_Gradient_Swatch_copy-6);}.cls-7{fill:url(#New_Gradient_Swatch_copy-7);}.cls-8{fill:url(#New_Gradient_Swatch_copy-8);}.cls-9{fill:url(#New_Gradient_Swatch_copy-9);}.cls-10{fill:url(#New_Gradient_Swatch_copy-10);}.cls-11{fill:url(#New_Gradient_Swatch_copy-11);}.cls-12{fill:url(#New_Gradient_Swatch_copy-12);}.cls-13{fill:url(#New_Gradient_Swatch_copy-13);}.cls-14{fill:url(#New_Gradient_Swatch_copy-14);}.cls-15{fill:url(#New_Gradient_Swatch_copy-15);}</style><linearGradient id="New_Gradient_Swatch_copy" x1="10.05" y1="51.29" x2="10.05" y2="30.22" gradientUnits="userSpaceOnUse"><stop offset="0" stop-color="#00e97e"/><stop offset="1" stop-color="#00e8e9"/></linearGradient><linearGradient id="New_Gradient_Swatch_copy-2" x1="49.16" y1="51.29" x2="49.16" y2="30.22" xlink:href="#New_Gradient_Swatch_copy"/><linearGradient id="New_Gradient_Swatch_copy-3" x1="30.19" y1="21.08" x2="30.19" y2="0" xlink:href="#New_Gradient_Swatch_copy"/><linearGradient id="New_Gradient_Swatch_copy-4" x1="23.49" y1="41.58" x2="23.49" y2="39.74" xlink:href="#New_Gradient_Swatch_copy"/><linearGradient id="New_Gradient_Swatch_copy-5" x1="34.48" y1="41.58" x2="34.48" y2="39.74" xlink:href="#New_Gradient_Swatch_copy"/><linearGradient id="New_Gradient_Swatch_copy-6" x1="30.82" y1="41.58" x2="30.82" y2="39.74" xlink:href="#New_Gradient_Swatch_copy"/><linearGradient id="New_Gradient_Swatch_copy-7" x1="27.15" y1="41.58" x2="27.15" y2="39.74" xlink:href="#New_Gradient_Swatch_copy"/><linearGradient id="New_Gradient_Swatch_copy-8" x1="17.43" y1="31.24" x2="17.43" y2="28.65" gradientTransform="translate(26.28 -3.56) rotate(45)" xlink:href="#New_Gradient_Swatch_copy"/><linearGradient id="New_Gradient_Swatch_copy-9" x1="25.2" y1="23.47" x2="25.2" y2="20.88" gradientTransform="translate(23.06 -11.33) rotate(45)" xlink:href="#New_Gradient_Swatch_copy"/><linearGradient id="New_Gradient_Swatch_copy-10" x1="22.61" y1="26.06" x2="22.61" y2="23.47" gradientTransform="translate(24.13 -8.74) rotate(45)" xlink:href="#New_Gradient_Swatch_copy"/><linearGradient id="New_Gradient_Swatch_copy-11" x1="20.02" y1="28.65" x2="20.02" y2="26.06" gradientTransform="translate(25.21 -6.15) rotate(45)" xlink:href="#New_Gradient_Swatch_copy"/><linearGradient id="New_Gradient_Swatch_copy-12" x1="43.91" y1="31.24" x2="43.91" y2="28.65" gradientTransform="translate(34.03 -22.28) rotate(45)" xlink:href="#New_Gradient_Swatch_copy"/><linearGradient id="New_Gradient_Swatch_copy-13" x1="38.73" y1="26.06" x2="38.73" y2="23.47" gradientTransform="translate(28.85 -20.14) rotate(45)" xlink:href="#New_Gradient_Swatch_copy"/><linearGradient id="New_Gradient_Swatch_copy-14" x1="41.32" y1="28.65" x2="41.32" y2="26.06" gradientTransform="translate(31.44 -21.21) rotate(45)" xlink:href="#New_Gradient_Swatch_copy"/><linearGradient id="New_Gradient_Swatch_copy-15" x1="36.14" y1="23.47" x2="36.14" y2="20.88" gradientTransform="translate(26.26 -19.06) rotate(45)" xlink:href="#New_Gradient_Swatch_copy"/></defs><title>Transaction</title><g id="Layer_2" data-name="Layer 2"><g id="Layer_1-2" data-name="Layer 1"><path class="cls-1" d="M0,34.12H0V47.38H0l10.05,3.9,10.05-3.9h0V34.13h0l-10-3.9Zm1.83,2.69,7.3,2.84V49l-7.3-2.83Zm16.44,9.33L11,49V39.65l7.31-2.84ZM10.08,38H10L2.51,35.11l7.54-2.93,7.54,2.93Z"/><path class="cls-2" d="M49.16,30.22l-10,3.9h0V47.38h0l10,3.9,10.05-3.9h0V34.13h0Zm-8.22,6.59,7.31,2.84V49l-7.31-2.83Zm16.44,9.33L50.08,49V39.65l7.3-2.84ZM49.19,38h-.06l-7.51-2.92,7.54-2.93,7.54,2.93Z"/><path class="cls-3" d="M40.24,17.17h0V3.92h0L30.19,0l-10,3.91h0V17.16h0l10.05,3.91Zm-1.83-1.25-7.3,2.84V9.43l7.3-2.83ZM30.19,2,37.73,4.9,30.22,7.81h-.06L22.65,4.9ZM22,6.6l7.3,2.83v9.33L22,15.92Z"/><rect class="cls-4" x="22.58" y="39.74" width="1.83" height="1.83"/><rect class="cls-5" x="33.56" y="39.74" width="1.83" height="1.83"/><rect class="cls-6" x="29.9" y="39.74" width="1.83" height="1.83"/><rect class="cls-7" x="26.24" y="39.74" width="1.83" height="1.83"/><rect class="cls-8" x="16.52" y="29.02" width="1.83" height="1.83" transform="translate(-16.06 21.1) rotate(-45)"/><rect class="cls-9" x="24.29" y="21.26" width="1.83" height="1.83" transform="translate(-8.3 24.31) rotate(-45)"/><rect class="cls-10" x="21.7" y="23.85" width="1.83" height="1.83" transform="translate(-10.89 23.24) rotate(-45)"/><rect class="cls-11" x="19.11" y="26.44" width="1.83" height="1.83" transform="translate(-13.48 22.17) rotate(-45)"/><rect class="cls-12" x="43" y="29.03" width="1.83" height="1.83" transform="translate(-8.31 39.82) rotate(-45)"/><rect class="cls-13" x="37.82" y="23.85" width="1.83" height="1.83" transform="translate(-6.16 34.64) rotate(-45)"/><rect class="cls-14" x="40.41" y="26.44" width="1.83" height="1.83" transform="translate(-7.24 37.23) rotate(-45)"/><rect class="cls-15" x="35.23" y="21.26" width="1.83" height="1.83" transform="translate(-5.09 32.05) rotate(-45)"/></g></g></svg>